<?xml version="1.0" standalone="no"?>
<!DOCTYPE svg PUBLIC "-//W3C//DTD SVG 1.1//EN" "http://www.w3.org/Graphics/SVG/1.1/DTD/svg11.dtd" >
<!--
2013-9-30: Created.
-->
<svg>
<metadata>
Created by iconfont
</metadata>
<defs>

<font id="iconfont" horiz-adv-x="1024" >
  <font-face
    font-family="iconfont"
    font-weight="500"
    font-stretch="normal"
    units-per-em="1024"
    ascent="896"
    descent="-128"
  />
    <missing-glyph />
    
    <glyph glyph-name="hr" unicode="&#58898;" d="M704 49l0-189 143.755 0C876.699-140 893-124.414 895-92.849L895 49 704 49zM741.395 553.314c0 19.971-6.438 35.596-19.313 46.823C709.207 611.36 690.471 617 665.877 617L607 617l0-135 58.134 0c22.613 0 40.978 6.355 55.091 19.563C734.338 514.768 741.395 531.854 741.395 553.314zM851.747 753 172.288 753c-7.05 0-13.534-2.412-19.71-6.779C136.795 738.299 129 721.789 129 697.21l0-786.067C132-123.104 146.837-140 172.288-140L640-140 640 113l255 0L895 705.134C892 736.76 877.198 753 851.747 753zM519 277l-50 0L469 450 275 450l0-173-49 0L226 660l49 0 0-166 194 0L469 660l50 0L519 277zM778.782 277l-63.633 106.341c-12.713 21.293-24.351 35.624-34.912 43.3C669.672 434.316 657.045 438 642.354 438L607 438l0-161-50 0L557 660l117.048 0c37.302 0 66.519-8.86 87.649-26.85 21.128-17.994 31.586-43.099 31.586-75.449 0-53.153-28.283-87.581-85.283-103.427l0-1.238c11-4.457 19.793-10.813 27.469-19.065 7.676-8.256 17.672-22.242 29.89-42.213L837.216 277 778.782 277z"  horiz-adv-x="1024" />

    
    <glyph glyph-name="chahao" unicode="&#58903;" d="M558.096874 386.755764l278.304494 276.863678c13.159718 13.094226 13.226233 34.31248 0.132006 47.472198-13.123902 13.189394-34.305317 13.226233-47.465035 0.132006L510.692215 434.330292 234.740302 711.122339c-13.062504 13.093203-34.310434 13.159718-47.470151 0.066515-13.129019-13.093203-13.160741-34.342156-0.066515-47.501874l275.885398-276.725532L184.918593 110.266615c-13.160741-13.094226-13.226233-34.310434-0.134053-47.472198 6.54609-6.581905 15.172561-9.900487 23.799032-9.900487 8.56098 0 17.125029 3.252067 23.672142 9.768481l278.236955 276.761348 278.473339-279.31245c6.54609-6.582929 15.142885-9.871835 23.768333-9.871835 8.594749 0 17.155728 3.288906 23.701818 9.80532 13.123902 13.093203 13.159718 34.305317 0.066515 47.465035L558.096874 386.755764 558.096874 386.755764zM558.096874 386.755764"  horiz-adv-x="1024" />

    
    <glyph glyph-name="fengmian" unicode="&#58920;" d="M407.614394 538.100038l-79.840853 79.300704 24.226772 24.391791 79.840853-79.300704-24.226772-24.391791ZM442.68068 573.407264l-20.150055 20.013734 35.060198 35.299007 20.150055-20.013734-35.060198-35.299007ZM427.685309 658.350835l20.150055-20.013734-35.060918-35.299732-20.150055 20.013734 35.060918 35.299732ZM488.567268 619.617952l-79.840853 79.300704 24.226772 24.391791 79.840853-79.300704-24.226772-24.391791ZM14.309973 893.975853C7.541028 893.964619 2.062962 888.469192 2.074196 881.701268l0-1009.701268L1023.968347 893.95747 14.309973 893.975853zM159.263228 435.930307l31.597941 31.816491-22.120601 21.968433-27.234075-27.423009-10.756985 10.682432 27.234075 27.423009-22.87838 22.721105 11.736378 11.818079 22.87838-22.721105 27.385222 27.574156 10.756985-10.682432-27.385222-27.574156 22.120601-21.968433 30.996416 31.210881 10.756985-10.682432-74.330734-74.845452L159.263228 435.930307zM246.675346 351.525814l-14.528517 9.613168c10.225927 12.114246 20.199601 24.076324 29.923066 35.888275l-24.847379 24.676827-27.385222-27.574156-10.756985 10.683454 27.385222 27.574156-18.636045 18.507365 11.736378 11.818079 18.636045-18.507365 28.438147 28.635251 10.756985-10.683454-28.438147-28.635251 23.787306-23.622882c10.775368 13.172277 21.200441 26.092301 31.273178 38.761094 2.72882-3.111795 6.263419-6.923156 10.608901-11.438169C291.674327 408.653338 269.023689 380.089576 246.675346 351.525814zM245.075024 509.002842l5.384109 15.116765c18.438941-5.273813 36.729798-11.499444 54.873593-18.684044l-6.432949-17.084743C281.459634 496.041968 263.517028 502.925294 245.075024 509.002842zM358.954247 455.793912c-3.611193-3.635704-10.434265-10.302522-20.46513-20.000455-4.240292 3.206772-9.588658 6.912943-16.043053 11.117491 9.935888 8.188503 17.463632 14.857364 22.579149 20.008625 7.222386 7.272428 6.641287 15.072851-1.741257 23.398204l-76.663304 76.136331-41.828974-42.119013-11.211448 11.133832 41.829995 42.119013-33.33307 33.103285 11.887525 11.969226 33.332049-33.103285 17.604567 17.726098 11.211448-11.133832-17.604567-17.726098 79.087787-78.544474C372.74541 484.831541 373.197831 470.136558 358.954247 455.793912zM522.768225 634.073088 417.591201 528.168924l8.635817-8.575563-11.586252-11.665911L306.160972 615.660701l47.698184 48.028053c-4.767265 10.551711-9.075983 19.547013-12.926152 26.981823l-62.744482-63.17852-11.212469 11.134853L411.726076 784.378794l11.212469-11.134853-68.538119-69.011986c3.297665-7.690126 7.206046-17.086786 11.723102-28.194064l68.386972 68.860839 108.328648-107.584146-11.586252-11.665911L522.768225 634.073088zM397.839825 687.99243l20.150055-20.013734-35.060198-35.299007-20.150055 20.013734 35.060198 35.299007Z"  horiz-adv-x="1024" />

    
    <glyph glyph-name="guimo" unicode="&#58924;" d="M883.244232 541.825538c-20.295232 47.983851-49.342802 91.070158-86.336344 128.063701-36.993542 36.993542-80.080873 66.042135-128.063701 86.337367-49.693796 21.018709-102.46365 31.676443-156.844188 31.676443s-107.150392-10.657734-156.844188-31.676443c-47.982828-20.295232-91.070158-49.342802-128.063701-86.337367-36.993542-36.993542-66.042135-80.07985-86.337367-128.063701-21.018709-49.693796-31.676443-102.46365-31.676443-156.844188s10.657734-107.150392 31.676443-156.844188c20.295232-47.983851 49.342802-91.070158 86.337367-128.062678 36.993542-36.993542 80.080873-66.042135 128.063701-86.336344 49.693796-21.018709 102.46365-31.676443 156.844188-31.676443s107.150392 10.657734 156.844188 31.676443c47.983851 20.295232 91.070158 49.342802 128.063701 86.336344 36.993542 36.992519 66.041112 80.07985 86.336344 128.062678 21.018709 49.694819 31.676443 102.464673 31.676443 156.844188S904.262942 492.131743 883.244232 541.825538zM853.522304 384.981351c0-19.470447-1.661849-38.558178-4.807493-57.147558L542.699186 408.626887 542.699186 725.108888C716.683752 709.533145 853.522304 562.949648 853.522304 384.981351zM512 43.459047c-188.31597 0-341.523327 153.206334-341.523327 341.522304 0 177.968297 136.839575 324.551794 310.824141 340.127538l0-352.84314 249.389954-249.389954C671.403476 73.326285 595.128279 43.459047 512 43.459047zM774.104533 166.290583 614.130052 326.266088l218.915895-57.797357C819.371506 230.907253 799.276842 196.409554 774.104533 166.290583z"  horiz-adv-x="1024" />

    
    <glyph glyph-name="xingming" unicode="&#58915;" d="M901.703653-3.768581c-7.274684 108.710934-61.002352 209.851449-147.386792 277.499152l-5.194302 3.588735-0.049119-0.069585c-4.913916 3.004427-10.515494 4.608971-16.277732 4.608971-19.807115 0-31.627325-9.54847-31.627325-25.545816 0-9.317203 4.309142-18.074657 11.539824-24.009833l-0.083911-0.14224 4.584412-3.28379c72.450079-51.792597 113.241111-130.343627 121.228015-233.507218l0.088004-1.128707c-0.072655-0.86367-0.116657-1.737574-0.116657-2.626827 0-17.430998 14.132882-31.562856 31.562856-31.562856 16.851806 0 30.611182 13.199627 31.519878 29.820166l0.62831 0L901.703653-3.768581 901.703653-3.768581zM800.041252 524.949172c0 156.939355-129.213897 284.628526-288.047392 284.628526-158.839635 0-288.054555-127.688147-288.054555-284.628526 0-84.558861 37.390585-163.433256 102.923114-217.813794-117.639281-62.783928-195.723683-182.552709-204.558909-314.786383l-0.36839-5.508457c-0.005117-0.116657-0.01535-0.230244-0.020466-0.342808l-0.033769-0.500397 0.020466 0c-0.010233-0.270153-0.020466-0.540306-0.020466-0.810459 0-14.780635 11.981892-26.76355 26.76355-26.76355 14.780635 0 26.767644 11.981892 26.767644 26.76355 0 0.270153-0.01535 0.540306-0.020466 0.810459l0.554632 0 0.417509 5.493108c9.699919 125.665071 89.345887 235.700163 203.190749 281.042861 33.989115-15.790638 85.874833-32.231075 132.414799-32.231075 43.119053 0 84.99172 9.497305 124.860752 28.456099l29.203112 16.95516 23.846104 15.650445C759.8816 355.85601 800.041252 437.361325 800.041252 524.949172L800.041252 524.949172zM511.989767 297.612491c-126.916575 0-230.1651 102.000092-230.1651 227.361241 0 125.33659 103.247502 227.317239 230.1651 227.317239 126.930901 0 230.192729-101.981672 230.192729-227.317239C742.18045 399.612583 638.919644 297.612491 511.989767 297.612491L511.989767 297.612491z"  horiz-adv-x="1024" />

    
    <glyph glyph-name="qita" unicode="&#58938;" d="M125.84722 640.760828c-15.954367 0-29.006637-10.075473-29.006637-22.38994 0-12.314467 13.053294-22.38994 29.006637-22.38994l772.304538 0c15.954367 0 29.006637 10.075473 29.006637 22.38994 0 12.314467-13.053294 22.38994-29.006637 22.38994L125.84722 640.760828zM96.840582 384c0-12.314467 13.053294-22.38994 29.006637-22.38994l633.819486 0c15.954367 0 29.006637 10.075473 29.006637 22.38994s-13.053294 22.38994-29.006637 22.38994L125.84722 406.38994C109.893876 406.38994 96.840582 396.314467 96.840582 384zM96.840582 149.629111c0-12.314467 13.053294-22.38994 29.006637-22.38994l453.960119 0c15.954367 0 29.006637 10.075473 29.006637 22.38994s-13.053294 22.38994-29.006637 22.38994L125.84722 172.019051C109.893876 172.018028 96.840582 161.942555 96.840582 149.629111z"  horiz-adv-x="1024" />

    
    <glyph glyph-name="jiaoyu" unicode="&#58891;" d="M697.909665 832.951035 139.004379 832.951035l0-754.74972c0.357134-4.770653 8.761548-100.351546 138.621151-141.553946l608.516194-0.398066 0 777.784342C766.872317 763.64046 697.909665 832.951035 697.909665 832.951035L697.909665 832.951035zM246.631632 77.810413c0 0-68.571748 23.331381-89.014336 94.479815l-0.357134 111.255897c0 0 31.002085-71.846328 89.370447-97.374748L246.630608 77.810413 246.631632 77.810413zM246.631632 474.707908c0 0-71.152527 23.3805-89.014336 79.163991l-0.357134 110.902856c0 0 31.002085-64.929802 89.370447-82.047668L246.630608 474.707908 246.631632 474.707908zM739.116159 385.346671 423.208233 385.346671 423.208233 542.575622l315.907926 0L739.116159 385.346671 739.116159 385.346671zM281.307386 715.872526c-82.844823 26.622334-108.019179 71.501474-115.284653 93.39511l520.5487 0c8.057513-9.152451 82.486666-68.616774 140.112108-93.39511L281.307386 715.872526 281.307386 715.872526zM281.307386 715.872526"  horiz-adv-x="1024" />

    
    <glyph glyph-name="ai61" unicode="&#59059;" d="M119.87367 180.779575l0-148.975986 149.005662 0 431.384961 435.265338-149.056827 148.971893L119.87367 180.779575zM813.943378 580.774619c15.735379 15.679098 15.735379 39.231513 0 54.856375l-90.1236 90.23821c-15.743566 15.654538-39.231513 15.654538-54.977126 0l-70.591755-70.595848 149.056827-149.031245L813.943378 580.774619zM472.797651 110.213403l-78.409814-78.409814 509.73747 0 0 78.409814L472.797651 110.213403z"  horiz-adv-x="1024" />

    
    <glyph glyph-name="xinghao" unicode="&#58956;" d="M876.8 236.8 620.8 384l256 147.2c25.6 12.8 38.4 51.2 19.2 76.8-12.8 25.6-51.2 38.4-76.8 19.2l-256-147.2L563.2 774.4C569.6 806.4 544 832 512 832S454.4 806.4 454.4 774.4l0-294.4-256 147.2C179.2 646.4 140.8 633.6 128 608c-12.8-25.6-6.4-64 19.2-76.8l256-147.2-256-147.2c-25.6-12.8-38.4-51.2-19.2-76.8 12.8-19.2 32-25.6 51.2-25.6 6.4 0 19.2 0 25.6 6.4l256 147.2 0-294.4C454.4-38.4 480-64 512-64s57.6 25.6 57.6 57.6L569.6 288l256-147.2c6.4-6.4 19.2-6.4 25.6-6.4 19.2 0 38.4 12.8 51.2 25.6C908.8 185.6 902.4 224 876.8 236.8z"  horiz-adv-x="1024" />

    
    <glyph glyph-name="icon-yxj-city" unicode="&#58979;" d="M1001.984-51.2h-90.624v520.704c-1.024 49.664-40.96 88.576-91.136 88.576h-159.232c-50.176 0-97.792-38.4-97.792-88.576v-520.704h-541.184c-11.776 0-22.016-10.752-22.016-23.040s9.728-23.040 22.016-23.040h980.48c11.776 0 22.016 10.752 22.016 23.040s-10.24 23.040-22.528 23.040zM783.36 344.576c0-12.288-9.728-22.016-22.016-22.016h-43.52c-12.288 0-22.016 9.728-22.016 22.016l-0 63.488c0 12.288 9.728 22.016 22.016 22.016h43.52c12.288 0 22.016-9.728 22.016-22.016l0-63.488zM783.36 144.896c0-12.288-9.728-22.016-22.016-22.016h-43.52c-12.288 0-22.016 9.728-22.016 22.016v64c0 12.288 9.728 22.016 22.016 22.016h43.52c12.288 0 22.016-9.728 22.016-22.016v-64zM566.272 865.28h-348.672c-59.904 0-110.080-41.472-110.080-101.376v-774.144h414.72v220.16h-41.472c-14.336 0-25.088 11.264-25.088 25.6v56.32c0 14.336 10.752 25.6 25.088 25.6h41.472v152.064c0 74.24 64.512 134.656 138.752 134.656h9.728l0 159.744c0 59.904-44.032 101.376-104.448 101.376zM322.56 431.616c0-12.288-9.728-22.016-22.016-22.016h-43.52c-12.288 0-22.016 9.728-22.016 22.016v63.488c0 12.288 9.728 22.016 22.016 22.016h43.52c12.288 0 22.016-9.728 22.016-22.016v-63.488zM322.56 626.176c0-12.288-9.728-22.016-22.016-22.016h-43.52c-12.288 0-22.016 9.728-22.016 22.016v63.488c0 12.288 9.728 22.016 22.016 22.016h43.52c12.288 0 22.016-9.728 22.016-22.016v-63.488zM542.72 626.176c0-12.288-9.728-22.016-22.016-22.016h-43.52c-12.288 0-22.016 9.728-22.016 22.016l-0 63.488c0 12.288 9.728 22.016 22.016 22.016h43.52c12.288 0 22.016-9.728 22.016-22.016v-63.488z"  horiz-adv-x="1025" />

    
    <glyph glyph-name="009-copy" unicode="&#58893;" d="M604.207 360.121v-0.024c0.355 0.007 0.712 0.024 1.069 0.024h-1.069zM1019.918 204.174c-52.912 52.912-121.91 79.84-191.249 80.948l-1.262-141.124-10.182-15.909h-19.093l-57.893 34.356-41.986-75.076h-93.25l-41.986 75.076-57.893-34.356h-19.099l-10.178 15.909-1.259 141.124c-69.34-1.107-138.335-28.037-191.249-80.948-54.032-54.032-81.053-124.841-81.053-195.665v-76.366h340.384l61.057 116.419h95.813l61.059-116.419h340.368v76.366c0.002 70.819-27.009 141.634-81.039 195.665zM688.738 360.121c0.357 0 0.712-0.020 1.071-0.024v0.024h-1.071zM737.189 680.282c4.234 10.753 21.024 16.439 27.26 3.561 26.714-55.091 88.442-111.89 151.276-123.66v18.639c0 143.118-118.241 259.152-264.105 259.152-139.246 0-253.216-105.745-263.297-239.849 112.743-73.854 294.865-54.789 348.865 82.16zM752.615 644.306c-70.656-126.415-243.231-148.212-365.092-80.007v-100.67c0-143.123 118.241-259.152 264.105-259.152s264.105 116.029 264.105 259.152v66.605c-63.981 10.762-127.153 58.841-163.116 114.069z"  horiz-adv-x="1449" />

    
    <glyph glyph-name="xinfeng" unicode="&#58882;" d="M701.825 382.75L997.82 618.435v-596.519L701.825 382.75zM32.42 664.32H995.41L513.92 280.911 32.42 664.32z m-3.68-643.964l0.823 598.455 296.443-236.062L28.74 20.356zM513.8 233.21v-0.187l0.12 0.093 0.12-0.093v0.187l164.067 130.648 283.766-345.917H65.967L349.72 363.859 513.8 233.211z"  horiz-adv-x="1024" />

    
    <glyph glyph-name="fanhui1" unicode="&#58880;" d="M532.526499-8.817574L139.506311 384.202615 532.526499 777.222803c12.258185 12.258185 12.432147 32.892131-0.187265 45.51052-12.707416 12.707416-32.995485 12.703323-45.511543 0.187265L75.166957 411.260877c-7.120165-7.120165-10.163477-17.065677-8.990768-26.624381-1.500167-9.755178 1.5104-20.010753 8.990768-27.491121l411.660734-411.660734c12.258185-12.258185 32.892131-12.432147 45.511543 0.187265 12.707416 12.707416 12.7023 32.995485 0.187265 45.51052z"  horiz-adv-x="1024" />

    
    <glyph glyph-name="gengduo" unicode="&#58881;" d="M492.675886-8.817574L885.696074 384.202615 492.675886 777.222803c-12.258185 12.258185-12.432147 32.892131 0.187265 45.51052 12.707416 12.707416 32.995485 12.703323 45.511543 0.187265l411.660734-411.660734c7.120165-7.120165 10.163477-17.065677 8.990768-26.624381 1.500167-9.755178-1.5104-20.010753-8.990768-27.491121L538.374694-54.515359c-12.258185-12.258185-32.892131-12.432147-45.511543 0.187265-12.707416 12.707416-12.703323 32.995485-0.187265 45.51052z"  horiz-adv-x="1024" />

    
    <glyph glyph-name="qita1" unicode="&#58974;" d="M435.5 307.7l0.1-0.1v-203.1c0-28.7-22.5-51.2-51.2-51.2h-152c-28.7 0-51.2 22.5-51.2 51.2v152c0 28.7 22.5 51.2 51.2 51.2h203.1z m0 50.9H232.4c-57 0-102.1-45.7-102.1-102.1v-152c0-57 45.7-102.1 102.1-102.1h152c57 0 102.1 45.7 102.1 102.1v203c0.1 28.8-22.8 51.1-51 51.1m356.1-50.9c28.7 0 51.2-22.5 51.2-51.2v-152c0-28.7-22.5-51.2-51.2-51.2h-152c-28.7 0-51.2 22.5-51.2 51.2l0.1 203.2h203.1z m0 50.9H588.5c-28.8 0-51-22.8-51-51v-203.1c0-57 45.7-102.1 102.1-102.1h152c57 0 102.1 45.7 102.1 102.1v152c-0.1 56.9-45.8 102.1-102.1 102.1M384.5 714.7c28.7 0 51.2-22.5 51.2-51.2l-0.1-203.2H232.4c-28.7 0-51.2 22.5-51.2 51.2v152c0 28.7 22.5 51.2 51.2 51.2h152.1z m0 50.9h-152c-57 0-102.1-45.7-102.1-102.1v-152c0-57 45.7-102.1 102.1-102.1h203.1c28.8 0 51 22.8 51 51V663.6c0 56.9-45.7 102-102.1 102m407.1-50.9c28.7 0 51.2-22.5 51.2-51.2v-152c0-28.7-22.5-51.2-51.2-51.2l-203.2 0.1V663.6c0 28.7 22.5 51.2 51.2 51.2h152v-0.1z m0 50.9h-152c-57 0-102.1-45.7-102.1-102.1v-203.1c0-28.8 22.8-51 51-51h203.1c57 0 102.1 45.7 102.1 102.1v152c-0.1 57-45.8 102.1-102.1 102.1"  horiz-adv-x="1024" />

    
    <glyph glyph-name="xinxinicon" unicode="&#58889;" d="M1264.426 646.51l-106.045 28.353-28.514 106.205 108.287 108.287c-63.915 17.3-135.039 0.801-185.178-49.338-50.459-50.459-66.799-122.224-49.018-186.459l-292.344-292.183c-64.236 17.781-135.84 1.442-186.299-49.018-50.139-50.139-66.638-121.263-49.338-185.338l108.287 108.447 106.045-28.514 28.514-106.045-108.287-108.287c63.915-17.3 135.039-0.961 185.178 49.178 52.702 52.702 68.24 128.631 46.455 194.789l286.417 286.417c66.318-21.625 142.087-6.087 194.789 46.615 50.139 50.139 66.638 121.263 49.338 185.178l-108.287-108.287z"  horiz-adv-x="1824" />

    
    <glyph glyph-name="yula" unicode="&#59048;" d="M512 710.4c-217.6 0-406.4-136-480-328 73.6-192 262.4-328 480-328 217.6 0 406.4 136 480 328-73.6 192-262.4 328-480 328M512 164.8c-121.6 0-217.6 96-217.6 217.6s96 217.6 217.6 217.6 217.6-96 217.6-217.6-96-217.6-217.6-217.6M512 513.6c-73.6 0-131.2-56-131.2-131.2 0-73.6 56-131.2 131.2-131.2 73.6 0 131.2 56 131.2 131.2 0 75.2-57.6 131.2-131.2 131.2z"  horiz-adv-x="1024" />

    
    <glyph glyph-name="gongzuo" unicode="&#58971;" d="M260.096 506.88h522.24c20.48 0 34.816 14.336 34.816 30.72s-16.384 30.72-34.816 30.72H260.096c-20.48 0-34.816-14.336-34.816-30.72s16.384-30.72 34.816-30.72z m0 184.32h524.288c20.48 0 34.816 14.336 34.816 30.72S802.816 752.64 784.384 752.64H260.096c-20.48 0-34.816-14.336-34.816-30.72s16.384-30.72 34.816-30.72zM847.872 896H40.96v-892.928C40.96-68.608 100.352-128 176.128-128H798.72l184.32 184.32V764.928C983.04 836.608 923.648 896 847.872 896zM921.6 76.8l-143.36-143.36H184.32c-32.768 0-81.92 49.152-81.92 81.92V834.56h737.28c32.768 0 81.92-49.152 81.92-81.92v-675.84z m-102.4 276.48c0 16.384-16.384 30.72-34.816 30.72H260.096c-20.48 0-34.816-14.336-34.816-30.72s16.384-30.72 34.816-30.72h522.24c20.48 0 36.864 14.336 36.864 30.72z m26.624-133.12h-131.072c-45.056 0-79.872-34.816-79.872-77.824v-133.12c0-18.432 16.384-34.816 34.816-34.816 18.432 0 26.624 22.528 26.624 40.96v122.88c0 6.144 14.336 20.48 20.48 20.48h122.88c18.432 0 40.96 8.192 40.96 26.624 0 20.48-16.384 34.816-34.816 34.816z"  horiz-adv-x="1024" />

    
    <glyph glyph-name="jiaotongshishi-" unicode="&#58890;" d="M857.6-115.2h-614.4v844.8H512v-350.464l135.936 102.4 132.864-102.4V729.6h153.6v-768a76.8 76.8 0 0 0-76.8-76.8z m-209.664 647.936l-97.536-76.8V768H742.4v-312.064l-94.464 76.8zM128 806.4V768a38.4 38.4 0 0 1 38.4-38.4H204.8v-844.8H166.4a76.8 76.8 0 0 0-76.8 76.8v844.8a76.8 76.8 0 0 0 76.8 76.8h691.2A76.8 76.8 0 0 0 923.648 844.8H166.4A38.4 38.4 0 0 1 128 806.4z"  horiz-adv-x="1024" />

    
    <glyph glyph-name="dianhua" unicode="&#58883;" d="M749.48608 875.88864L274.55488 875.88864c-28.13952 0-50.91328-22.81472-50.91328-50.91328l0-882.03264c0-28.09856 22.81472-50.87232 50.91328-50.87232l474.9312 0c28.13952 0 50.87232 22.81472 50.87232 50.87232L800.3584 824.97536C800.3584 853.11488 777.58464 875.88864 749.48608 875.88864zM512-39.11680000000001c-18.71872 0-33.91488 15.19616-33.91488 33.91488s15.19616 33.91488 33.91488 33.91488c18.75968 0 33.91488-15.19616 33.91488-33.91488S530.75968-39.11680000000001 512-39.11680000000001zM733.55264 85.52448000000004L290.44736 85.52448000000004 290.44736 750.22336l443.10528 0L733.55264 85.52448000000004z"  horiz-adv-x="1024" />

    
    <glyph glyph-name="guimo1" unicode="&#58905;" d="M993.28 41.472H159.232h-32.256v18.944l2.048 2.56 248.832 410.624 173.056-247.296c6.144-9.216 15.36-12.288 24.576-12.288 9.216 0 18.432 3.072 24.576 12.288l123.392 163.84 137.728-183.296 0.512 0.512c5.632-6.656 14.336-10.752 24.064-10.752 17.408 0 31.744 14.336 31.744 31.744 0 9.216-4.096 17.408-10.24 23.04l-156.16 206.848c-6.144 9.216-15.36 12.288-24.576 12.288-9.216 0-18.432-3.072-24.576-12.288L578.56 297.472 406.016 553.984c-6.144 9.216-15.36 12.288-27.648 12.288-9.216 0-18.432-6.144-24.576-15.36L128 179.2V826.88c0 18.432-12.288 30.72-30.72 30.72s-30.72-12.288-30.72-30.72V574.464h-1.024V40.96H30.72c-18.432 0-30.72-12.288-30.72-30.72s12.288-30.72 30.72-30.72h34.816v-38.4c0-18.432 12.288-30.72 30.72-30.72s30.72 12.288 30.72 30.72V-20.48h865.28c18.432 0 30.72 12.288 30.72 30.72 1.024 18.944-11.264 31.232-29.696 31.232z"  horiz-adv-x="1024" />

    
    <glyph glyph-name="icon02" unicode="&#58884;" d="M509.86675497844936-134.3541433685332c-285.50878597878517 0-516.9598013743407 231.49765760948148-516.9598013743407 517.0432654348641S224.3579689996643 899.7152038001777 509.86675497844936 899.7152038001777c285.5112404233481 0 516.9622558189036-231.4804739084642 516.9622558189036-517.0260817338469S795.3779954017974-134.3541433685332 509.86675497844936-134.3541433685332zM509.86675497844936 835.0893975425581c-249.82294849611847 0-452.3389053003852-202.54541402263706-452.3389053003852-452.40027547622714S260.04380518779266-69.71360914899753 509.86675497844936-69.71360914899753s452.3389053003852 202.54786846719998 452.3389053003852 452.4027312153284S759.689703474568 835.0893975425581 509.86675497844936 835.0893975425581zM703.7269861666764 350.36885495656304L542.1796574599902 350.36885495656304l0-161.57187833046913c0-17.836781335387652-14.466302073362964-32.30799359241482-32.310448036977775-32.30799359241482-17.844145963614814 0-32.30799359241482 14.47121225702716-32.30799359241482 32.30799359241482l0 161.57187833046913-161.55223889035062 0c-17.844145963614814 0-32.310448036977775 14.468756517925923-32.310448036977775 32.3202671097679 0 17.839235779950616 14.468756517925923 32.30799359241482 32.310448036977775 32.30799359241482l161.55223889035062 0 0 161.57924295869628c0 17.836781335387652 14.466302073362964 32.30062896418766 32.30799359241482 32.30062896418766 17.84660040817778 0 32.310448036977775-14.461391889698765 32.310448036977775-32.30062896418766l0-161.57924295869628 161.54733000122468 0c17.84660040817778 0 32.310448036977775-14.468756517925923 32.310448036977775-32.30799359241482C736.0374342036542 364.8376114744889 721.5735865748544 350.36885495656304 703.7269861666764 350.36885495656304z"  horiz-adv-x="1024" />

    
    <glyph glyph-name="suo" unicode="&#59078;" d="M805.376 557.056h-20.992l0.512 55.808c-0.512 131.584-78.848 237.056-199.68 268.8-24.064 6.144-49.664 9.728-76.288 9.216-77.312 0-146.944-29.696-196.608-82.944-48.64-51.712-75.264-121.856-74.752-197.12l-2.048-53.76h-27.648c-77.824 0-140.8-62.976-140.8-140.8v-398.336c0-77.824 62.976-140.8 140.8-140.8h597.504c77.824 0 140.8 62.976 140.8 140.8v398.336c0 77.824-63.488 140.8-140.8 140.8zM563.2 801.792c83.968-22.016 138.752-96.256 138.752-189.44l-0.512-55.296H317.952l2.048 53.248c0 55.296 18.432 105.472 53.248 141.824 34.304 35.84 82.432 55.808 135.68 56.32 18.944 0.512 36.864-2.048 54.272-6.656z m300.544-385.536v-398.336c0-32.256-26.112-58.368-58.368-58.368H207.872c-32.256 0-58.368 26.112-58.368 58.368v398.336c0 32.256 26.112 58.368 58.368 58.368h597.504c32.256 0 58.368-26.112 58.368-58.368zM506.368 357.888c-40.96 0-74.24-33.28-74.24-74.24 0-24.576 12.8-48.128 33.28-61.952V117.76c0-22.528 18.432-41.472 41.472-41.472 22.528 0 41.472 18.432 41.472 41.472v103.936c20.48 13.824 33.28 37.376 33.28 61.952-0.512 40.96-33.792 74.24-75.264 74.24z"  horiz-adv-x="1024" />

    
    <glyph glyph-name="gongzuo1" unicode="&#58984;" d="M939.349333 622.933333h-102.4V814.762667A46.421333 46.421333 0 0 1 790.869333 861.866667H198.997333A46.421333 46.421333 0 0 1 153.6 814.762667V622.933333h-68.266667a68.266667 68.266667 0 0 1-68.266666-68.266666v-580.266667a68.266667 68.266667 0 0 1 68.266666-68.266667h853.333334a68.266667 68.266667 0 0 1 68.266666 68.266667V554.666667a68.266667 68.266667 0 0 1-67.584 68.266666zM221.866667 790.869333h546.133333v-165.205333h-546.133333z m716.8-819.2h-853.333334V315.733333h375.466667v-68.266666h102.4v68.266666h375.466667z m-375.466667 409.6V452.266667h-102.4v-68.266667h-375.466667v170.666667h104.106667a44.032 44.032 0 0 1 9.557333 0h591.872a44.032 44.032 0 0 1 9.557334 0h139.264v-170.666667z"  horiz-adv-x="1024" />

    
    <glyph glyph-name="shijian" unicode="&#58980;" d="M511.965868-61.954202C265.565548-61.954202 65.960468 137.753275 65.960468 383.982934c0 246.332056 199.673344 446.0054 446.0054 446.0054 246.297923 0 445.937135-199.673344 445.937135-446.0054 0.034132-246.263791-199.673344-445.971268-445.937135-445.971268m0 957.92007C229.180627 895.965868 0.017066 666.768174 0.017066 384.017066s229.163561-511.91467 511.948802-511.914669c282.716976 0 511.91467 229.163561 511.914669 511.914669C1023.880537 666.768174 794.682844 895.965868 512 895.965868M759.082964 396.850772h-228.241992V670.078997a33.449552 33.449552 0 0 1-66.830839 0v-306.609513c0-18.465518 14.949902-33.449552 33.415419-33.449551h261.62328a33.415419 33.415419 0 0 1 0 66.830839"  horiz-adv-x="1024" />

    
    <glyph glyph-name="xinxi" unicode="&#59012;" d="M711.032236 896H142.241941C111.007279 896 85.274177 870.444367 85.274177 839.032236V-71.209705c0-31.234662 25.555633-56.790295 56.967764-56.790295h739.516118c31.234662 0 56.967764 25.555633 56.967764 56.967764V668.483882L711.032236 896z m28.395147-113.758059l85.362912-85.362912h-85.362912V782.241941z m142.153206-824.879029c0-17.037088-11.358059-28.395147-28.395147-28.395148H170.637088c-17.037088 0-28.395147 11.358059-28.395147 28.395148V810.637088c0 17.037088 11.358059 28.395147 28.395147 28.395148h512v-199.120971h199.120971v-682.548353zM739.427383 99.693588H284.395147c-17.037088 0-28.395147 11.358059-28.395147 28.395147s11.358059 28.395147 28.395147 28.395147h455.032236c17.037088 0 28.395147-11.358059 28.395147-28.395147s-11.358059-28.395147-28.395147-28.395147m0 170.548353H284.395147c-17.037088 0-28.395147 11.358059-28.395147 28.395147s11.358059 28.395147 28.395147 28.395148h455.032236c17.037088 0 28.395147-11.358059 28.395147-28.395148s-11.358059-28.395147-28.395147-28.395147m0 170.725823H284.395147c-17.037088 0-28.395147 11.358059-28.395147 28.395148s11.358059 28.395147 28.395147 28.395147h455.032236c17.037088 0 28.395147-11.358059 28.395147-28.395147s-11.358059-28.395147-28.395147-28.395148"  horiz-adv-x="1024" />

    
    <glyph glyph-name="kefu" unicode="&#58916;" d="M871.5 611.1h-75.7v-340.6H341.7v-71.9c0-24.6 20.8-45.4 45.4-45.4h408.7l113.5-185.4V573.2c0.1 24.6-15.1 37.9-37.8 37.9z m0 0M758 346.2V762.5c0 24.6-13.2 37.8-37.8 37.8h-562c-24.6 0-43.5-18.9-43.5-43.5V138L285 308.3h435.2c22.7 0 37.8 15.1 37.8 37.9zM273.6 524c-24.6 0-45.4 20.8-45.4 45.4 0 24.6 20.8 45.4 45.4 45.4 24.6 0 45.4-20.8 45.4-45.4 0-24.6-20.8-45.4-45.4-45.4z m158.9 0c-24.6 0-45.4 20.8-45.4 45.4 0 24.6 20.8 45.4 45.4 45.4 24.6 0 45.4-20.8 45.4-45.4 0-24.6-20.8-45.4-45.4-45.4z m159 0c-24.6 0-45.4 20.8-45.4 45.4 0 24.6 20.8 45.4 45.4 45.4s45.4-18.9 45.4-45.4c0-24.6-20.8-45.4-45.4-45.4z m0 0"  horiz-adv-x="1024" />

    
    <glyph glyph-name="lianjie" unicode="&#58957;" d="M114.688 211.968c13.312 24.576 28.672 50.176 47.104 69.632 54.272 57.344 110.592 112.64 166.912 167.936 77.824 75.776 183.296 84.992 250.88 5.12 21.504-24.576 12.288-46.08 1.024-53.248-9.216-6.144-33.792-11.264-58.368 17.408-40.96 48.128-100.352 28.672-145.408-16.384L207.872 233.472c-47.104-48.128-49.152-116.736-4.096-162.816 44.032-44.032 107.52-39.936 154.624 6.144 47.104 47.104 69.632 74.752 116.736 121.856 14.336 14.336 35.84 34.816 59.392 17.408 15.36-11.264 7.168-36.864-4.096-52.224-39.936-52.224-71.68-83.968-119.808-130.048-57.344-55.296-120.832-67.584-183.296-54.272-51.2 11.264-101.376 53.248-121.856 124.928 2.048 2.048-11.264 67.584 9.216 107.52zM859.136 752.64c80.896-61.44 80.896-188.416 5.12-269.312-61.44-65.536-110.592-117.76-176.128-179.2-71.68-67.584-163.84-57.344-234.496 5.12-22.528 20.48-22.528 50.176-5.12 63.488 20.48 11.264 33.792 5.12 57.344-14.336 52.224-43.008 99.328-41.984 147.456 6.144 55.296 55.296 111.616 110.592 165.888 165.888 48.128 48.128 50.176 116.736 5.12 162.816s-108.544 45.056-163.84-6.144c-48.128-44.032-93.184-93.184-139.264-139.264-15.36-15.36-32.768-22.528-50.176-14.336-10.24 5.12-14.336 15.36-13.312 29.696 1.024 10.24 13.312 24.576 19.456 31.744 47.104 48.128 86.016 88.064 134.144 134.144 30.72 30.72 81.92 61.44 111.616 64.512 57.344 6.144 109.568-20.48 136.192-40.96z"  horiz-adv-x="1024" />

    
    <glyph glyph-name="caiwu" unicode="&#58943;" d="M400.896 607.232H614.4c66.048 0 116.736 143.36 116.736 143.36 0 43.008-4.096 75.264-77.824 77.824-73.216 2.56-91.136-51.2-143.872-51.2-54.272 0-80.896 41.984-147.456 51.2-66.56 9.216-77.824-34.816-77.824-77.824 0 0 50.688-143.36 116.736-143.36z m225.28-44.544h-225.28c-249.344 0-310.784-489.984-310.784-489.984 0-64.512 52.224-129.024 116.736-129.024h613.888c64.512 0 116.736 64.512 116.736 129.024-0.512 0-61.952 489.984-311.296 489.984z m25.6-376.832c14.848 0 27.136-12.288 27.136-27.136s-12.288-27.136-27.136-27.136h-110.592v-71.68c0-14.848-12.288-27.136-27.136-27.136s-27.136 12.288-27.136 27.136v71.68H375.808c-14.848 0-27.136 12.288-27.136 27.136s12.288 27.136 27.136 27.136h111.104V220.16H375.808c-14.848 0-27.136 12.288-27.136 27.136s12.288 27.136 27.136 27.136h75.264L373.76 411.648c-7.68 12.8-3.072 29.696 9.728 37.376s29.696 3.072 37.376-9.728l92.672-163.84h4.608l92.672 163.84c7.68 12.8 24.064 17.408 37.376 9.728 12.8-7.68 17.408-24.064 9.728-37.376l-76.8-136.704h70.656c14.848 0 27.136-12.288 27.136-27.136s-12.288-27.136-27.136-27.136h-110.592v-34.304h110.592z"  horiz-adv-x="1024" />

    
    <glyph glyph-name="xiaoxi" unicode="&#58913;" d="M890.260742 71.38601500000004c-4.948266-6.985787-24.450256-23.577032-95.181353-23.577033H176.255057c-70.731097 0-90.233087 16.300171-95.181353 23.577033a16.882319 16.882319 0 0 0-2.910745 12.225128l116.42979 150.485503v195.310972c0 232.859579 212.484366 285.252985 237.807845 291.074474h108.570779c25.614554-5.239341 237.516771-55.886299 237.516771-291.074474v-195.310972l116.429789-150.485503a16.882319 16.882319 0 0 0-2.910744-12.516203m-405.757817-146.701535a119.04946 119.04946 0 0 0-118.467311 71.604321h236.934622a119.04946 119.04946 0 0 0-118.467311-71.604321m0 919.504264a39.00398 39.00398 0 0 0 39.295054-39.003979v-32.891416h-78.590108V804.602615a39.295054 39.295054 0 0 0 39.295054 39.00398m456.113701-738.164867l-111.19045 145.537237v177.55543c0 231.113132-181.048323 311.449687-253.525866 334.44457V804.602615a91.397385 91.397385 0 0 1-182.79477 0v-40.750426c-72.18647-22.703809-253.525867-103.331438-253.525867-334.444571v-177.555429l-107.697556-140.588971-3.492893-5.82149A68.98465 68.98465 0 0 1 37.412533 42.860716000000025c21.248437-31.727118 66.656055-47.154065 138.842524-47.154064h137.096077c17.464468-73.641842 84.702672-123.706652 172.898238-123.706652s155.724844 50.06481 173.189312 123.706652h137.096077c72.18647 0 116.42979 15.426947 138.842524 47.154064a68.98465 68.98465 0 0 1 6.985788 62.581012M806.140219 601.432632m-191.818079 0a191.818078 191.818078 0 1 1 383.636157 0 191.818078 191.818078 0 1 1-383.636157 0Z"  horiz-adv-x="1024" />

    
    <glyph glyph-name="wuliu" unicode="&#58894;" d="M798.72 724.992H418.612224c-34.079744 0-65.536-28.83584-65.536-65.536v-73.40032l-162.532352-81.263616s-2.619392 0-2.619392-2.624512C159.087616 481.200128 143.36 449.739776 143.36 410.420224v-264.768512c0-7.86432 2.620416-13.104128 7.86432-18.348032s10.487808-7.86432 18.352128-7.86432h81.263616c0 5.243904-2.624512 7.86432-2.624512 13.108224 0 65.536 52.432896 117.963776 117.968896 117.963776s117.963776-52.427776 117.963776-117.963776c0-5.243904 0-7.86432-2.624512-13.108224h81.268736v13.108224c0 65.536 52.427776 117.963776 117.963776 117.963776S798.72 198.083584 798.72 132.547584v-13.108224h55.052288c15.727616 0 26.212352 10.483712 26.212352 26.212352v500.69504C877.364224 688.29184 843.28448 724.992 798.72 724.992M353.076224 410.420224c0-15.72864-10.487808-26.216448-26.216448-26.216448H222.004224c-15.72864 0-26.216448 10.487808-26.216448 26.216448 0 52.427776 86.508544 89.127936 120.588288 102.23616 10.483712 5.243904 18.348032 2.619392 26.212352-2.624512 7.863296-5.239808 10.487808-13.104128 10.487808-20.967424v-78.644224zM277.052416 135.168c0 50.671616 41.079808 91.752448 91.751424 91.752448 50.67264 0 91.752448-41.079808 91.752448-91.752448s-41.079808-91.752448-91.752448-91.752448c-50.671616 0-91.751424 41.080832-91.751424 91.752448m311.95136 0c0 50.671616 41.079808 91.752448 91.752448 91.752448s91.748352-41.079808 91.748352-91.752448-41.075712-91.752448-91.748352-91.752448-91.752448 41.080832-91.752448 91.752448"  horiz-adv-x="1024" />

    
    <glyph glyph-name="xiaoshou" unicode="&#58886;" d="M256 313.6v-326.4h153.6V313.6l-76.8 64-76.8-64zM0-12.8h153.6V236.8L0 115.2v-128z m768 403.2v-403.2h153.6V518.4L768 390.4z m-256-160v-243.2h153.6v320L544 204.8l-32 25.6z m512 550.4H729.6l121.6-115.2-313.6-256-204.8 172.8L0 320v-115.2l332.8 262.4L544 294.4l377.6 307.2 102.4-96V780.8z"  horiz-adv-x="1024" />

    
    <glyph glyph-name="aixin" unicode="&#58933;" d="M890.2 687.8c-91.8 91.9-242.1 91.9-334 0L544.4 676c-18.2-18.2-47.6-18.2-65.8 0l-11.8 11.8c-91.9 91.9-242.1 91.9-334 0C41 596 24.7 362.1 203.6 173.9 304 68.2 412.4 13.7 470-9.9c26.6-10.9 56.5-10.9 83 0 57.6 23.6 166 78.1 266.4 183.8 178.9 188.2 162.6 422 70.8 513.9z"  horiz-adv-x="1024" />

    
    <glyph glyph-name="shouji" unicode="&#59319;" d="M769.872 896H254.128A62.08 62.08 0 0 1 192 833.984v-899.968A62.08 62.08 0 0 1 254.128-128h515.744A62.08 62.08 0 0 1 832-65.984V833.984A62.08 62.08 0 0 1 769.872 896zM454.464 818.464h115.072a16.416 16.416 0 1 0 0-32.832h-115.072a16.416 16.416 0 1 0 0 32.832zM512-79.328a50.912 50.912 0 0 0-50.96 50.88A50.912 50.912 0 0 0 512 22.416a50.912 50.912 0 0 0 50.96-50.88A50.912 50.912 0 0 0 512-79.344z m259.712 144.4H252.288v666.24h519.424v-666.24z"  horiz-adv-x="1024" />

    
    <glyph glyph-name="gongzuo2" unicode="&#59002;" d="M1046.755556 742.4h-273.066667V833.422222c0 34.133333-28.444444 62.577778-68.266667 62.577778h-284.444444c-28.444444 0-62.577778-28.444444-62.577778-62.577778v-91.022222H91.022222C39.822222 742.4 0 702.577778 0 651.377778v-694.044445c0-45.511111 39.822222-85.333333 91.022222-85.333333h955.733334c51.2 0 91.022222 39.822222 91.022222 91.022222V651.377778c0 51.2-39.822222 91.022222-91.022222 91.022222zM409.6 833.422222c0 11.377778 11.377778 17.066667 17.066667 17.066667h284.444444c11.377778 0 17.066667-11.377778 17.066667-17.066667v-85.333333H409.6V833.422222z m705.422222-551.822222h-409.6v-17.066667c0-11.377778-11.377778-22.755556-22.755555-22.755555H455.111111c-11.377778 0-22.755556 11.377778-22.755555 22.755555v17.066667H11.377778v39.822222h420.977778v17.066667c0 11.377778 11.377778 22.755556 22.755555 22.755555h227.555556c11.377778 0 22.755556-11.377778 22.755555-22.755555v-17.066667h409.6v-39.822222z"  horiz-adv-x="1137" />

    
    <glyph glyph-name="dunpai" unicode="&#58901;" d="M511.97888-128l-8.448 3.2c-161.834667 61.141333-293.077333 182.954667-369.493333 343.04a715.008 715.008 0 0 0-40.405334 510.72l5.333334 18.133333 18.261333 0.042667C255.72288 747.392 386.92288 794.581333 496.576213 883.626667l15.274667 12.373333 15.274667-12.416c109.312-89.002667 240.597333-136.192 379.648-136.448l18.261333-0.042667 5.333333-18.133333a715.008 715.008 0 0 0-40.405333-510.72c-76.416-160.085333-207.658667-281.898667-369.493333-343.04l-8.490667-3.2zM135.957547 696.064c-84.181333-318.250667 78.122667-651.733333 376.021333-769.322667 297.941333 117.589333 460.245333 451.072 376.064 769.322667a641.792 641.792 0 0 0-202.069333 38.997333 658.090667 658.090667 0 0 0-174.165334 96.042667A660.181333 660.181333 0 0 0 337.813547 735.146667a639.872 639.872 0 0 0-201.856-39.082667z m330.752-500.906667a24.32 24.32 0 0 0-17.493334 7.509334L309.22688 347.989333a26.325333 26.325333 0 0 0 0 36.309334 24.106667 24.106667 0 0 0 34.986667 0l122.496-127.146667 262.570666 272.469333a24.149333 24.149333 0 0 0 35.029334 0 26.453333 26.453333 0 0 0 0-36.352L484.245547 202.666667a24.405333 24.405333 0 0 0-17.536-7.509334z"  horiz-adv-x="1024" />

    
    <glyph glyph-name="jixiejianzhu" unicode="&#58887;" d="M437.7 522.8c-47-25.3-79.5-72.2-79.5-130 0-41.5 17.2-78.6 44.7-105.2l45.7-29.8v-161h119.2V256l0.5 0.1c53.4 22.2 90 74.3 90 136.6 0 57.8-28.9 104.8-75.9 130v-148.1H437.8l-0.1 148.2zM518.9 780l427.5-224.6v-109.9L853.7 493v-503.4H166.5V490.7l-91.8-45.2V555.4l150.4 76.1V750.8h109.3v-64.1L518.9 780z"  horiz-adv-x="1024" />

    
    <glyph glyph-name="dizhi" unicode="&#59027;" d="M512.227-128c-192.737 0-400.44 40.361-400.44 128.794 0 62.129 99.317 94.327 181.4 110.2a25.396 25.396 0 0 0 9.523-49.885c-106.118-19.954-141.491-49.431-141.491-59.862 0-23.128 118.816-78.002 349.194-78.002s349.194 54.42 349.194 78.002c0 10.884-37.187 40.815-146.934 61.222a25.396 25.396 0 0 0-20.407 29.478 25.85 25.85 0 0 0 29.477 20.407C807.908 96.482 910.4 64.737 910.4 1.247 912.213-87.639 704.964-128 512.227-128zM512.227-45.463a31.745 31.745 0 0 0-26.303 13.605l-224.482 330.6a351.461 351.461 0 1 0 501.116 0l-224.482-330.6a31.745 31.745 0 0 0-25.85-13.605z m0 878.427a287.972 287.972 0 0 1-204.075-492.046l3.628-4.535 199.993-294.321 199.993 294.32 3.628 4.536A287.972 287.972 0 0 1 512.227 832.964zM512.227 409.396A165.074 165.074 0 1 0 677.3 574.469a165.074 165.074 0 0 0-165.073-165.073z m0 267.11A102.037 102.037 0 1 1 614.264 574.47a102.037 102.037 0 0 1-102.037 102.038z"  horiz-adv-x="1024" />

    
    <glyph glyph-name="diannao" unicode="&#58985;" d="M409.6 47.542857V179.2H146.285714a73.142857 73.142857 0 0 0-73.142857 73.142857V749.714286a73.142857 73.142857 0 0 0 73.142857 73.142857h731.428572a73.142857 73.142857 0 0 0 73.142857-73.142857v-497.371429a73.142857 73.142857 0 0 0-73.142857-73.142857H614.4v-131.657143h153.6a51.2 51.2 0 0 0 0-102.4h-512a51.2 51.2 0 0 0 0 102.4h153.6z"  horiz-adv-x="1024" />

    
    <glyph glyph-name="sousuo" unicode="&#58885;" d="M1009.894047-48.103064L785.395235 176.334238a439.685026 439.685026 0 0 1 98.551152 277.631058C883.946387 697.729007 685.675394 896 441.973194 896S0 697.729007 0 454.026806s198.270993-441.973194 441.973194-441.973193A439.697328 439.697328 0 0 1 719.665762 110.604765l224.437302-224.498812a46.526084 46.526084 0 1 1 65.790983 65.790983zM93.052168 454.026806c0 192.402949 156.530379 348.921026 348.921026 348.921026s348.933328-156.518077 348.933327-348.921026-156.530379-348.933328-348.933327-348.933327S93.052168 261.611555 93.052168 454.026806z"  horiz-adv-x="1024" />

    
    <glyph glyph-name="shouji1" unicode="&#58929;" d="M702.7 835.055H321.283c-57.463 0-104.022-46.591-104.022-104.018v-693.455c0-57.427 46.56-104.019 104.022-104.019H702.7c57.463 0 104.023 46.592 104.023 104.02V731.036c0 57.426-46.56 104.018-104.024 104.018zM477.316 800.382h69.35c9.582 0 17.336-7.754 17.336-17.336 0-9.582-7.754-17.336-17.337-17.336h-69.349c-9.581 0-17.336 7.754-17.336 17.336 0 9.582 7.755 17.336 17.336 17.336z m34.675-824.46c-24.482 0-44.324 19.842-44.324 44.323 0 24.48 19.843 44.323 44.324 44.323 24.482 0 44.325-19.843 44.325-44.323 0-24.482-19.843-44.322-44.325-44.322z m225.381 148.341c0-9.582-7.753-17.335-17.336-17.335h-416.09c-9.583 0-17.338 7.753-17.338 17.335V713.7c0 9.582 7.755 17.336 17.338 17.336h416.09c9.583 0 17.336-7.755 17.336-17.336v-589.437z"  horiz-adv-x="1024" />

    
    <glyph glyph-name="dianhua1" unicode="&#58906;" d="M927.54 125.542c-60.826 49.357-168.142 115.712-210.126 124.11l-2.867 0.614-3.072-0.41c-23.757-3.277-38.297-18.432-50.995-31.949-16.794-17.613-27.648-27.238-50.79-24.166-7.168 1.024-37.479 12.697-133.735 121.856l-40.96 47.513c-96.051 113.664-101.99 144.384-101.58 151.143 1.433 22.323 13.926 30.105 35.635 41.779 16.588 9.011 35.225 19.046 43.622 40.346l1.024 2.662v2.867c-0.205 40.346-47.104 152.986-85.197 217.703-4.096 9.42-16.179 25.19-49.152 25.19-66.97 0-184.32-63.898-196.813-139.674-17.817-107.315 58.368-272.179 203.981-440.934l53.658-62.26C485.58 33.179 641.433-71.065 756.53-76.594l4.915-0.205c75.776 0 158.925 85.606 177.972 143.36 12.288 36.66-3.072 53.248-11.879 58.982z"  horiz-adv-x="1024" />

    
    <glyph glyph-name="xiangji" unicode="&#58981;" d="M906.227 45.427H118.778c-29.659 0-53.69 24.047-53.69 53.688v465.29c0 29.632 24.031 53.678 53.69 53.678h161.07c53.689 0 71.586 107.376 107.379 107.376h232.655c53.218 0 73.561-107.376 125.293-107.376h161.053c29.64 0 53.689-24.047 53.689-53.678v-465.291c-0.001-29.64-24.05-53.687-53.69-53.687zM512.502 564.405c-118.6 0-214.741-96.147-214.741-214.741 0-118.64 96.141-214.794 214.741-214.794 118.617 0 214.759 96.156 214.759 214.794 0 118.595-96.142 214.74-214.759 214.74z m259.5 0c-14.82 0-26.828-12.015-26.828-26.862 0-14.82 12.006-26.826 26.829-26.826 14.819 0 26.861 12.006 26.861 26.826 0 14.848-12.041 26.862-26.861 26.862z m-259.5-375.845c-88.959 0-161.069 72.14-161.069 161.105 0 88.928 72.11 161.054 161.069 161.054 88.94 0 161.069-72.125 161.069-161.054 0-88.964-72.129-161.105-161.069-161.105zM154.571 671.772c0 9.883 8.022 17.905 17.896 17.905h53.69c9.892 0 17.914-8.022 17.914-17.905v-17.905h-89.5v17.905z"  horiz-adv-x="1024" />

    
    <glyph glyph-name="xiaoxi1" unicode="&#58897;" d="M836.633 272.062h-44.777V540.72c0 98.921-80.191 179.108-179.108 179.108h-44.777v67.166c0 24.73-20.047 44.777-44.777 44.777h-22.389c-24.73 0-44.777-20.047-44.777-44.777v-67.166h-44.777c-98.917 0-179.108-80.187-179.108-179.108v-268.658h-44.777c-37.093 0-67.166-30.072-67.166-67.17v-33.583c0-37.093 30.072-67.166 67.166-67.166h649.267c37.093 0 67.166 30.072 67.166 67.166v33.583c0 37.098-30.072 67.17-67.166 67.17zM512-63.77c61.824 0 111.938 50.119 111.938 111.943H400.057c0-61.824 50.115-111.943 111.943-111.943z"  horiz-adv-x="1024" />

    
    <glyph glyph-name="rili" unicode="&#58895;" d="M847.725714 822.857143H731.428571V859.428571a36.571429 36.571429 0 0 1-73.142857 0V822.857143H329.142857V859.428571a36.571429 36.571429 0 0 1-73.142857 0V822.857143H146.285714a146.285714 146.285714 0 0 1-146.285714-146.285714v-658.285715a146.285714 146.285714 0 0 1 146.285714-146.285714h701.44a146.285714 146.285714 0 0 1 146.285715 146.285714V676.571429a146.285714 146.285714 0 0 1-146.285715 146.285714z m73.142857-804.571429a73.142857 73.142857 0 0 0-73.142857-73.142857H146.285714a73.142857 73.142857 0 0 0-73.142857 73.142857V676.571429a73.142857 73.142857 0 0 0 73.142857 73.142857h109.714286v-36.571429a36.571429 36.571429 0 0 1 73.142857 0V749.714286H658.285714v-36.571429a36.571429 36.571429 0 0 1 73.142857 0V749.714286h116.297143a73.142857 73.142857 0 0 0 73.142857-73.142857v-658.285715zM310.418286 588.8H239.908571c-19.456 0-35.181714-17.188571-35.181714-38.4 0-21.211429 15.725714-38.4 35.181714-38.4h70.436572c19.456 0 35.181714 17.188571 35.181714 38.4 0 21.211429-15.725714 38.4-35.181714 38.4z m211.163428 0H451.291429c-19.456 0-35.181714-17.188571-35.181715-38.4 0-21.211429 15.725714-38.4 35.108572-38.4h70.436571c19.456 0 35.181714 17.188571 35.181714 38.4 0 21.211429-15.725714 38.4-35.108571 38.4z m211.236572 0h-70.436572c-19.456 0-35.181714-17.188571-35.181714-38.4 0-21.211429 15.725714-38.4 35.181714-38.4h70.436572c19.456 0 35.181714 17.188571 35.181714 38.4 0 21.211429-15.725714 38.4-35.181714 38.4zM310.418286 396.8H239.908571c-19.456 0-35.181714-17.188571-35.181714-38.4 0-21.211429 15.725714-38.4 35.181714-38.4h70.436572c19.456 0 35.181714 17.188571 35.181714 38.4 0 21.211429-15.725714 38.4-35.181714 38.4z m211.163428 0H451.291429c-19.456 0-35.181714-17.188571-35.181715-38.4 0-21.211429 15.725714-38.4 35.108572-38.4h70.436571c19.456 0 35.181714 17.188571 35.181714 38.4 0 21.211429-15.725714 38.4-35.108571 38.4z m211.236572 0h-70.436572c-19.456 0-35.181714-17.188571-35.181714-38.4 0-21.211429 15.725714-38.4 35.181714-38.4h70.436572c19.456 0 35.181714 17.188571 35.181714 38.4 0 21.211429-15.725714 38.4-35.181714 38.4zM310.418286 204.8H239.908571c-19.456 0-35.181714-17.188571-35.181714-38.4 0-21.211429 15.725714-38.4 35.181714-38.4h70.436572c19.456 0 35.181714 17.188571 35.181714 38.4 0 21.211429-15.725714 38.4-35.181714 38.4z m211.163428 0H451.291429c-19.456 0-35.181714-17.188571-35.181715-38.4 0-21.211429 15.725714-38.4 35.108572-38.4h70.436571c19.456 0 35.181714 17.188571 35.181714 38.4 0 21.211429-15.725714 38.4-35.108571 38.4z m211.236572 0h-70.436572c-19.456 0-35.181714-17.188571-35.181714-38.4 0-21.211429 15.725714-38.4 35.181714-38.4h70.436572c19.456 0 35.181714 17.188571 35.181714 38.4 0 21.211429-15.725714 38.4-35.181714 38.4z"  horiz-adv-x="1024" />

    
    <glyph glyph-name="xueli" unicode="&#58892;" d="M977.871238 411.111619l-32.670476-13.750857c1.560381-3.998476 2.633143-8.289524 2.633143-12.775619v-220.598857c0-19.407238-15.798857-35.206095-35.206095-35.206096h-2.340572c-19.407238 0-35.206095 15.798857-35.206095 35.206096V368.981333C690.468571 297.20381 625.127619 272.432762 580.559238 253.513143c-47.88419-20.382476-82.992762-20.382476-130.876952-3.31581S173.982476 346.258286 60.65981 397.263238c-75.580952 34.03581-81.13981 56.173714 0.877714 85.040762 106.105905 38.326857 283.014095 100.449524 376.149333 133.607619 55.296 21.26019 84.943238 32.377905 135.558095 8.484571C663.649524 588.8 870.985143 515.657143 973.287619 474.794667c90.307048-36.571429 29.45219-49.249524 4.583619-63.683048zM596.650667 222.793143c53.833143 20.870095 126.488381 55.881143 205.677714 88.161524v-260.291048S699.538286-53.296762 519.314286-53.296762C325.144381-53.296762 220.40381 50.663619 220.40381 50.663619V292.62019c61.244952-23.600762 130.096762-43.690667 213.089523-70.704761 50.907429-17.456762 116.053333-22.625524 163.157334 0.877714z"  horiz-adv-x="1024" />

    
    <glyph glyph-name="jianzhu" unicode="&#58896;" d="M658.678893 762.434783v-890.434783h-296.811594V896l296.811594-133.565217z m326.492754-267.130435v-623.304348h-296.811594V628.869565l296.811594-133.565217zM35.374545 361.73913l296.811595 133.565218v-623.304348H35.374545V361.73913z"  horiz-adv-x="1024" />

    
    <glyph glyph-name="-" unicode="&#59160;" d="M870.4 691.2H153.6c-56.32 0-102.4-46.08-102.4-102.4v-409.6c0-56.32 46.08-102.4 102.4-102.4h716.8c56.32 0 102.4 46.08 102.4 102.4V588.8c0 56.32-46.08 102.4-102.4 102.4zM153.6 640h727.04l-327.68-281.6H471.04L143.36 640H153.6z m-40.96-491.52c-5.12 10.24-10.24 20.48-10.24 30.72V588.8v15.36l261.12-225.28-250.88-230.4z m51.2-20.48l240.64 215.04 30.72-25.6c10.24-10.24 20.48-10.24 35.84-10.24h81.92c10.24 0 25.6 5.12 35.84 10.24l30.72 25.6 240.64-215.04H163.84zM921.6 179.2c0-10.24-5.12-20.48-10.24-30.72l-256 230.4L921.6 604.16V179.2z"  horiz-adv-x="1024" />

    


  </font>
</defs>
</svg>
